# xmcd CD database file
#
# Track frame offsets:
#	150
#	21206
#	39464
#	55206
#	73160
#	87293
#	101867
#	116925
#	131876
#	151365
#	165269
#	182717
#	195475
#	211277
#	227120
#	243011
#	257987
#	271650
#	296281
#
# Disc length: 4011 seconds
#
# Revision: 0
# Processed by: cddbd v1.5.1PL2 Copyright (c) Steve Scherf et al.
# Submitted via: CDex 1.51
#
DISCID=0e0fa913
DTITLE=Promo Only Canada - September 2005 Country Radio
DYEAR=2005
DGENRE=Country
TTITLE0=Keith Urban - Better Life
TTITLE1=Dierks Bentley - Come A Little Closer (Edit)
TTITLE2=Gretchen Wilson - All Jacked Up
TTITLE3=Trace Adkins - Arlington (Edit)
TTITLE4=Aaron Pritchett - Lucky For Me
TTITLE5=Jessica Andrews - Summer Girl
TTITLE6=Terri Clark - She Didn't Have Time
TTITLE7=Poverty Plainsmen - Sister Golden Hair
TTITLE8=Rascal Flatts - Skin (Sarabeth)
TTITLE9=Joe Nichols - Tequila Makes Her Clothes Fall Off
TTITLE10=Chris Cagle - Miss Me Baby
TTITLE11=The Warren Brothers - Change
TTITLE12=Josh Turner - Your Man
TTITLE13=Gord Bamford - All About Her
TTITLE14=Darryl Worley - I Love Her, She Hates Me (Album Version)
TTITLE15=Catherine Britt and Elton John - Where We Both Say Goodbye
TTITLE16=Jessica Robinson - I Like This Place
TTITLE17=Buddy Jewell - So Gone
TTITLE18=Data Track - Pete
EXTD=YEAR: 2005
EXTT0=
EXTT1=
EXTT2=
EXTT3=
EXTT4=
EXTT5=
EXTT6=
EXTT7=
EXTT8=
EXTT9=
EXTT10=
EXTT11=
EXTT12=
EXTT13=
EXTT14=
EXTT15=
EXTT16=
EXTT17=
EXTT18=
PLAYORDER=
